<mxfile host="app.diagrams.net" agent="Mozilla/5.0 (Windows NT 10.0; Win64; x64) AppleWebKit/537.36 (KHTML, like Gecko) Chrome/136.0.0.0 Safari/537.36 Edg/136.0.0.0" version="27.0.8">
  <diagram id="6a731a19-8d31-9384-78a2-239565b7b9f0" name="Page-1">
    <mxGraphModel dx="3456" dy="2064" grid="0" gridSize="10" guides="1" tooltips="1" connect="1" arrows="1" fold="1" page="1" pageScale="1" pageWidth="1654" pageHeight="2336" background="none" math="0" shadow="0">
      <root>
        <mxCell id="0" />
        <mxCell id="1" parent="0" />
        <mxCell id="f2XqEatsttYMCxV9yTw9-161" value="" style="group" vertex="1" connectable="0" parent="1">
          <mxGeometry x="420" y="80" width="813.2" height="2210" as="geometry" />
        </mxCell>
        <mxCell id="f2XqEatsttYMCxV9yTw9-55" value="INÍCIO" style="strokeWidth=2;html=1;shape=mxgraph.flowchart.terminator;whiteSpace=wrap;" vertex="1" parent="f2XqEatsttYMCxV9yTw9-161">
          <mxGeometry x="143.50588235294117" width="153.07294117647058" height="47.83549783549784" as="geometry" />
        </mxCell>
        <mxCell id="f2XqEatsttYMCxV9yTw9-59" value="" style="edgeStyle=orthogonalEdgeStyle;rounded=0;orthogonalLoop=1;jettySize=auto;html=1;" edge="1" parent="f2XqEatsttYMCxV9yTw9-161" source="f2XqEatsttYMCxV9yTw9-56" target="f2XqEatsttYMCxV9yTw9-57">
          <mxGeometry relative="1" as="geometry" />
        </mxCell>
        <mxCell id="f2XqEatsttYMCxV9yTw9-56" value="&lt;div&gt;&lt;br&gt;&lt;/div&gt;&lt;div&gt;N&lt;/div&gt;" style="html=1;strokeWidth=2;shape=manualInput;whiteSpace=wrap;rounded=1;size=26;arcSize=11;" vertex="1" parent="f2XqEatsttYMCxV9yTw9-161">
          <mxGeometry x="162.64000000000001" y="76.53679653679654" width="114.80470588235295" height="66.96969696969697" as="geometry" />
        </mxCell>
        <mxCell id="f2XqEatsttYMCxV9yTw9-157" style="edgeStyle=orthogonalEdgeStyle;rounded=0;orthogonalLoop=1;jettySize=auto;html=1;fontFamily=Helvetica;fontSize=12;fontColor=default;" edge="1" parent="f2XqEatsttYMCxV9yTw9-161" source="f2XqEatsttYMCxV9yTw9-57">
          <mxGeometry relative="1" as="geometry">
            <mxPoint x="220.04235294117646" y="2143.030303030303" as="targetPoint" />
            <Array as="points">
              <mxPoint x="0.9567058823529412" y="210.47619047619048" />
              <mxPoint x="0.9567058823529412" y="2143.030303030303" />
              <mxPoint y="2143.030303030303" />
            </Array>
          </mxGeometry>
        </mxCell>
        <mxCell id="f2XqEatsttYMCxV9yTw9-57" value="para i de 1 ate N" style="shape=hexagon;perimeter=hexagonPerimeter2;whiteSpace=wrap;html=1;fixedSize=1;strokeWidth=2;" vertex="1" parent="f2XqEatsttYMCxV9yTw9-161">
          <mxGeometry x="148.28941176470587" y="181.77489177489178" width="143.50588235294117" height="57.4025974025974" as="geometry" />
        </mxCell>
        <mxCell id="f2XqEatsttYMCxV9yTw9-58" style="edgeStyle=orthogonalEdgeStyle;rounded=0;orthogonalLoop=1;jettySize=auto;html=1;entryX=0.5;entryY=0.2;entryDx=0;entryDy=0;entryPerimeter=0;" edge="1" parent="f2XqEatsttYMCxV9yTw9-161" source="f2XqEatsttYMCxV9yTw9-55" target="f2XqEatsttYMCxV9yTw9-56">
          <mxGeometry relative="1" as="geometry" />
        </mxCell>
        <mxCell id="f2XqEatsttYMCxV9yTw9-65" value="" style="edgeStyle=orthogonalEdgeStyle;rounded=0;orthogonalLoop=1;jettySize=auto;html=1;fontFamily=Helvetica;fontSize=12;fontColor=default;" edge="1" parent="f2XqEatsttYMCxV9yTw9-161" source="f2XqEatsttYMCxV9yTw9-60" target="f2XqEatsttYMCxV9yTw9-64">
          <mxGeometry relative="1" as="geometry" />
        </mxCell>
        <mxCell id="f2XqEatsttYMCxV9yTw9-60" value="&lt;div&gt;&lt;br&gt;&lt;/div&gt;&lt;div&gt;V&lt;/div&gt;" style="html=1;strokeWidth=2;shape=manualInput;whiteSpace=wrap;rounded=1;size=26;arcSize=11;" vertex="1" parent="f2XqEatsttYMCxV9yTw9-161">
          <mxGeometry x="162.64000000000001" y="267.8787878787879" width="114.80470588235295" height="66.96969696969697" as="geometry" />
        </mxCell>
        <mxCell id="f2XqEatsttYMCxV9yTw9-61" style="edgeStyle=orthogonalEdgeStyle;rounded=0;orthogonalLoop=1;jettySize=auto;html=1;entryX=0.5;entryY=0.2;entryDx=0;entryDy=0;entryPerimeter=0;" edge="1" parent="f2XqEatsttYMCxV9yTw9-161" source="f2XqEatsttYMCxV9yTw9-57" target="f2XqEatsttYMCxV9yTw9-60">
          <mxGeometry relative="1" as="geometry" />
        </mxCell>
        <mxCell id="f2XqEatsttYMCxV9yTw9-67" value="" style="edgeStyle=orthogonalEdgeStyle;rounded=0;orthogonalLoop=1;jettySize=auto;html=1;fontFamily=Helvetica;fontSize=12;fontColor=default;" edge="1" parent="f2XqEatsttYMCxV9yTw9-161" source="f2XqEatsttYMCxV9yTw9-64" target="f2XqEatsttYMCxV9yTw9-66">
          <mxGeometry relative="1" as="geometry" />
        </mxCell>
        <mxCell id="f2XqEatsttYMCxV9yTw9-64" value="digito = V % 10" style="rounded=0;whiteSpace=wrap;html=1;strokeWidth=2;" vertex="1" parent="f2XqEatsttYMCxV9yTw9-161">
          <mxGeometry x="143.50588235294117" y="382.6839826839827" width="153.07294117647058" height="47.83549783549784" as="geometry" />
        </mxCell>
        <mxCell id="f2XqEatsttYMCxV9yTw9-162" value="" style="edgeStyle=orthogonalEdgeStyle;rounded=0;orthogonalLoop=1;jettySize=auto;html=1;fontFamily=Helvetica;fontSize=12;fontColor=default;" edge="1" parent="f2XqEatsttYMCxV9yTw9-161" source="f2XqEatsttYMCxV9yTw9-66" target="f2XqEatsttYMCxV9yTw9-79">
          <mxGeometry relative="1" as="geometry" />
        </mxCell>
        <mxCell id="f2XqEatsttYMCxV9yTw9-66" value="V = V / 10" style="rounded=0;whiteSpace=wrap;html=1;strokeWidth=2;" vertex="1" parent="f2XqEatsttYMCxV9yTw9-161">
          <mxGeometry x="143.50588235294117" y="468.7878787878788" width="153.07294117647058" height="47.83549783549784" as="geometry" />
        </mxCell>
        <mxCell id="f2XqEatsttYMCxV9yTw9-126" value="" style="edgeStyle=orthogonalEdgeStyle;rounded=0;orthogonalLoop=1;jettySize=auto;html=1;fontFamily=Helvetica;fontSize=12;fontColor=default;" edge="1" parent="f2XqEatsttYMCxV9yTw9-161" source="f2XqEatsttYMCxV9yTw9-69" target="f2XqEatsttYMCxV9yTw9-109">
          <mxGeometry relative="1" as="geometry" />
        </mxCell>
        <mxCell id="f2XqEatsttYMCxV9yTw9-69" value="totalleds += 6" style="rounded=0;whiteSpace=wrap;html=1;strokeWidth=2;" vertex="1" parent="f2XqEatsttYMCxV9yTw9-161">
          <mxGeometry x="353.98117647058825" y="669.6969696969697" width="153.07294117647058" height="47.83549783549784" as="geometry" />
        </mxCell>
        <mxCell id="f2XqEatsttYMCxV9yTw9-125" value="" style="edgeStyle=orthogonalEdgeStyle;rounded=0;orthogonalLoop=1;jettySize=auto;html=1;fontFamily=Helvetica;fontSize=12;fontColor=default;" edge="1" parent="f2XqEatsttYMCxV9yTw9-161" source="f2XqEatsttYMCxV9yTw9-70" target="f2XqEatsttYMCxV9yTw9-110">
          <mxGeometry relative="1" as="geometry" />
        </mxCell>
        <mxCell id="f2XqEatsttYMCxV9yTw9-70" value="totalleds += 2" style="rounded=0;whiteSpace=wrap;html=1;strokeWidth=2;" vertex="1" parent="f2XqEatsttYMCxV9yTw9-161">
          <mxGeometry x="353.98117647058825" y="774.9350649350649" width="153.07294117647058" height="47.83549783549784" as="geometry" />
        </mxCell>
        <mxCell id="f2XqEatsttYMCxV9yTw9-124" value="" style="edgeStyle=orthogonalEdgeStyle;rounded=0;orthogonalLoop=1;jettySize=auto;html=1;fontFamily=Helvetica;fontSize=12;fontColor=default;" edge="1" parent="f2XqEatsttYMCxV9yTw9-161" source="f2XqEatsttYMCxV9yTw9-71" target="f2XqEatsttYMCxV9yTw9-111">
          <mxGeometry relative="1" as="geometry" />
        </mxCell>
        <mxCell id="f2XqEatsttYMCxV9yTw9-71" value="totalleds += 5" style="rounded=0;whiteSpace=wrap;html=1;strokeWidth=2;" vertex="1" parent="f2XqEatsttYMCxV9yTw9-161">
          <mxGeometry x="353.98117647058825" y="889.7402597402597" width="153.07294117647058" height="47.83549783549784" as="geometry" />
        </mxCell>
        <mxCell id="f2XqEatsttYMCxV9yTw9-123" value="" style="edgeStyle=orthogonalEdgeStyle;rounded=0;orthogonalLoop=1;jettySize=auto;html=1;fontFamily=Helvetica;fontSize=12;fontColor=default;" edge="1" parent="f2XqEatsttYMCxV9yTw9-161" source="f2XqEatsttYMCxV9yTw9-72" target="f2XqEatsttYMCxV9yTw9-112">
          <mxGeometry relative="1" as="geometry" />
        </mxCell>
        <mxCell id="f2XqEatsttYMCxV9yTw9-72" value="totalleds += 5" style="rounded=0;whiteSpace=wrap;html=1;strokeWidth=2;" vertex="1" parent="f2XqEatsttYMCxV9yTw9-161">
          <mxGeometry x="353.98117647058825" y="1004.5454545454546" width="153.07294117647058" height="47.83549783549784" as="geometry" />
        </mxCell>
        <mxCell id="f2XqEatsttYMCxV9yTw9-122" value="" style="edgeStyle=orthogonalEdgeStyle;rounded=0;orthogonalLoop=1;jettySize=auto;html=1;fontFamily=Helvetica;fontSize=12;fontColor=default;" edge="1" parent="f2XqEatsttYMCxV9yTw9-161" source="f2XqEatsttYMCxV9yTw9-73" target="f2XqEatsttYMCxV9yTw9-113">
          <mxGeometry relative="1" as="geometry" />
        </mxCell>
        <mxCell id="f2XqEatsttYMCxV9yTw9-73" value="totalleds += 4" style="rounded=0;whiteSpace=wrap;html=1;strokeWidth=2;" vertex="1" parent="f2XqEatsttYMCxV9yTw9-161">
          <mxGeometry x="353.98117647058825" y="1109.78354978355" width="153.07294117647058" height="47.83549783549784" as="geometry" />
        </mxCell>
        <mxCell id="f2XqEatsttYMCxV9yTw9-121" value="" style="edgeStyle=orthogonalEdgeStyle;rounded=0;orthogonalLoop=1;jettySize=auto;html=1;fontFamily=Helvetica;fontSize=12;fontColor=default;" edge="1" parent="f2XqEatsttYMCxV9yTw9-161" source="f2XqEatsttYMCxV9yTw9-74" target="f2XqEatsttYMCxV9yTw9-114">
          <mxGeometry relative="1" as="geometry" />
        </mxCell>
        <mxCell id="f2XqEatsttYMCxV9yTw9-74" value="totalleds += 5" style="rounded=0;whiteSpace=wrap;html=1;strokeWidth=2;" vertex="1" parent="f2XqEatsttYMCxV9yTw9-161">
          <mxGeometry x="353.98117647058825" y="1224.5887445887447" width="153.07294117647058" height="47.83549783549784" as="geometry" />
        </mxCell>
        <mxCell id="f2XqEatsttYMCxV9yTw9-120" value="" style="edgeStyle=orthogonalEdgeStyle;rounded=0;orthogonalLoop=1;jettySize=auto;html=1;fontFamily=Helvetica;fontSize=12;fontColor=default;" edge="1" parent="f2XqEatsttYMCxV9yTw9-161" source="f2XqEatsttYMCxV9yTw9-75" target="f2XqEatsttYMCxV9yTw9-115">
          <mxGeometry relative="1" as="geometry" />
        </mxCell>
        <mxCell id="f2XqEatsttYMCxV9yTw9-75" value="totalleds += 6" style="rounded=0;whiteSpace=wrap;html=1;strokeWidth=2;" vertex="1" parent="f2XqEatsttYMCxV9yTw9-161">
          <mxGeometry x="353.98117647058825" y="1339.3939393939395" width="153.07294117647058" height="47.83549783549784" as="geometry" />
        </mxCell>
        <mxCell id="f2XqEatsttYMCxV9yTw9-119" value="" style="edgeStyle=orthogonalEdgeStyle;rounded=0;orthogonalLoop=1;jettySize=auto;html=1;fontFamily=Helvetica;fontSize=12;fontColor=default;" edge="1" parent="f2XqEatsttYMCxV9yTw9-161" source="f2XqEatsttYMCxV9yTw9-76" target="f2XqEatsttYMCxV9yTw9-116">
          <mxGeometry relative="1" as="geometry" />
        </mxCell>
        <mxCell id="f2XqEatsttYMCxV9yTw9-76" value="totalleds += 7" style="rounded=0;whiteSpace=wrap;html=1;strokeWidth=2;" vertex="1" parent="f2XqEatsttYMCxV9yTw9-161">
          <mxGeometry x="353.98117647058825" y="1588.1385281385283" width="153.07294117647058" height="47.83549783549784" as="geometry" />
        </mxCell>
        <mxCell id="f2XqEatsttYMCxV9yTw9-118" value="" style="edgeStyle=orthogonalEdgeStyle;rounded=0;orthogonalLoop=1;jettySize=auto;html=1;fontFamily=Helvetica;fontSize=12;fontColor=default;" edge="1" parent="f2XqEatsttYMCxV9yTw9-161" source="f2XqEatsttYMCxV9yTw9-77" target="f2XqEatsttYMCxV9yTw9-117">
          <mxGeometry relative="1" as="geometry" />
        </mxCell>
        <mxCell id="f2XqEatsttYMCxV9yTw9-77" value="totalleds += 6" style="rounded=0;whiteSpace=wrap;html=1;strokeWidth=2;" vertex="1" parent="f2XqEatsttYMCxV9yTw9-161">
          <mxGeometry x="353.98117647058825" y="1712.5108225108227" width="153.07294117647058" height="47.83549783549784" as="geometry" />
        </mxCell>
        <mxCell id="f2XqEatsttYMCxV9yTw9-99" value="" style="edgeStyle=orthogonalEdgeStyle;rounded=0;orthogonalLoop=1;jettySize=auto;html=1;fontFamily=Helvetica;fontSize=12;fontColor=default;" edge="1" parent="f2XqEatsttYMCxV9yTw9-161" source="f2XqEatsttYMCxV9yTw9-79" target="f2XqEatsttYMCxV9yTw9-80">
          <mxGeometry relative="1" as="geometry" />
        </mxCell>
        <mxCell id="f2XqEatsttYMCxV9yTw9-79" value="digito" style="rounded=0;whiteSpace=wrap;html=1;strokeWidth=2;" vertex="1" parent="f2XqEatsttYMCxV9yTw9-161">
          <mxGeometry x="143.50588235294117" y="564.4588744588744" width="153.07294117647058" height="47.83549783549784" as="geometry" />
        </mxCell>
        <mxCell id="f2XqEatsttYMCxV9yTw9-98" value="" style="edgeStyle=orthogonalEdgeStyle;rounded=0;orthogonalLoop=1;jettySize=auto;html=1;fontFamily=Helvetica;fontSize=12;fontColor=default;" edge="1" parent="f2XqEatsttYMCxV9yTw9-161" source="f2XqEatsttYMCxV9yTw9-80" target="f2XqEatsttYMCxV9yTw9-69">
          <mxGeometry relative="1" as="geometry" />
        </mxCell>
        <mxCell id="f2XqEatsttYMCxV9yTw9-101" value="" style="edgeStyle=orthogonalEdgeStyle;rounded=0;orthogonalLoop=1;jettySize=auto;html=1;fontFamily=Helvetica;fontSize=12;fontColor=default;" edge="1" parent="f2XqEatsttYMCxV9yTw9-161" source="f2XqEatsttYMCxV9yTw9-80" target="f2XqEatsttYMCxV9yTw9-81">
          <mxGeometry relative="1" as="geometry" />
        </mxCell>
        <mxCell id="f2XqEatsttYMCxV9yTw9-80" value="0" style="strokeWidth=2;html=1;shape=mxgraph.flowchart.decision;whiteSpace=wrap;" vertex="1" parent="f2XqEatsttYMCxV9yTw9-161">
          <mxGeometry x="143.50588235294117" y="650.5627705627705" width="153.07294117647058" height="86.1038961038961" as="geometry" />
        </mxCell>
        <mxCell id="f2XqEatsttYMCxV9yTw9-97" value="" style="edgeStyle=orthogonalEdgeStyle;rounded=0;orthogonalLoop=1;jettySize=auto;html=1;fontFamily=Helvetica;fontSize=12;fontColor=default;" edge="1" parent="f2XqEatsttYMCxV9yTw9-161" source="f2XqEatsttYMCxV9yTw9-81" target="f2XqEatsttYMCxV9yTw9-70">
          <mxGeometry relative="1" as="geometry" />
        </mxCell>
        <mxCell id="f2XqEatsttYMCxV9yTw9-102" value="" style="edgeStyle=orthogonalEdgeStyle;rounded=0;orthogonalLoop=1;jettySize=auto;html=1;fontFamily=Helvetica;fontSize=12;fontColor=default;" edge="1" parent="f2XqEatsttYMCxV9yTw9-161" source="f2XqEatsttYMCxV9yTw9-81" target="f2XqEatsttYMCxV9yTw9-82">
          <mxGeometry relative="1" as="geometry" />
        </mxCell>
        <mxCell id="f2XqEatsttYMCxV9yTw9-81" value="1" style="strokeWidth=2;html=1;shape=mxgraph.flowchart.decision;whiteSpace=wrap;" vertex="1" parent="f2XqEatsttYMCxV9yTw9-161">
          <mxGeometry x="143.50588235294117" y="755.8008658008658" width="153.07294117647058" height="86.1038961038961" as="geometry" />
        </mxCell>
        <mxCell id="f2XqEatsttYMCxV9yTw9-96" value="" style="edgeStyle=orthogonalEdgeStyle;rounded=0;orthogonalLoop=1;jettySize=auto;html=1;fontFamily=Helvetica;fontSize=12;fontColor=default;" edge="1" parent="f2XqEatsttYMCxV9yTw9-161" source="f2XqEatsttYMCxV9yTw9-82" target="f2XqEatsttYMCxV9yTw9-71">
          <mxGeometry relative="1" as="geometry" />
        </mxCell>
        <mxCell id="f2XqEatsttYMCxV9yTw9-103" value="" style="edgeStyle=orthogonalEdgeStyle;rounded=0;orthogonalLoop=1;jettySize=auto;html=1;fontFamily=Helvetica;fontSize=12;fontColor=default;" edge="1" parent="f2XqEatsttYMCxV9yTw9-161" source="f2XqEatsttYMCxV9yTw9-82" target="f2XqEatsttYMCxV9yTw9-83">
          <mxGeometry relative="1" as="geometry" />
        </mxCell>
        <mxCell id="f2XqEatsttYMCxV9yTw9-82" value="2" style="strokeWidth=2;html=1;shape=mxgraph.flowchart.decision;whiteSpace=wrap;" vertex="1" parent="f2XqEatsttYMCxV9yTw9-161">
          <mxGeometry x="143.50588235294117" y="870.6060606060606" width="153.07294117647058" height="86.1038961038961" as="geometry" />
        </mxCell>
        <mxCell id="f2XqEatsttYMCxV9yTw9-95" value="" style="edgeStyle=orthogonalEdgeStyle;rounded=0;orthogonalLoop=1;jettySize=auto;html=1;fontFamily=Helvetica;fontSize=12;fontColor=default;" edge="1" parent="f2XqEatsttYMCxV9yTw9-161" source="f2XqEatsttYMCxV9yTw9-83" target="f2XqEatsttYMCxV9yTw9-72">
          <mxGeometry relative="1" as="geometry" />
        </mxCell>
        <mxCell id="f2XqEatsttYMCxV9yTw9-104" value="" style="edgeStyle=orthogonalEdgeStyle;rounded=0;orthogonalLoop=1;jettySize=auto;html=1;fontFamily=Helvetica;fontSize=12;fontColor=default;" edge="1" parent="f2XqEatsttYMCxV9yTw9-161" source="f2XqEatsttYMCxV9yTw9-83" target="f2XqEatsttYMCxV9yTw9-84">
          <mxGeometry relative="1" as="geometry" />
        </mxCell>
        <mxCell id="f2XqEatsttYMCxV9yTw9-83" value="3" style="strokeWidth=2;html=1;shape=mxgraph.flowchart.decision;whiteSpace=wrap;" vertex="1" parent="f2XqEatsttYMCxV9yTw9-161">
          <mxGeometry x="143.50588235294117" y="985.4112554112554" width="153.07294117647058" height="86.1038961038961" as="geometry" />
        </mxCell>
        <mxCell id="f2XqEatsttYMCxV9yTw9-94" value="" style="edgeStyle=orthogonalEdgeStyle;rounded=0;orthogonalLoop=1;jettySize=auto;html=1;fontFamily=Helvetica;fontSize=12;fontColor=default;" edge="1" parent="f2XqEatsttYMCxV9yTw9-161" source="f2XqEatsttYMCxV9yTw9-84" target="f2XqEatsttYMCxV9yTw9-73">
          <mxGeometry relative="1" as="geometry" />
        </mxCell>
        <mxCell id="f2XqEatsttYMCxV9yTw9-105" value="" style="edgeStyle=orthogonalEdgeStyle;rounded=0;orthogonalLoop=1;jettySize=auto;html=1;fontFamily=Helvetica;fontSize=12;fontColor=default;" edge="1" parent="f2XqEatsttYMCxV9yTw9-161" source="f2XqEatsttYMCxV9yTw9-84" target="f2XqEatsttYMCxV9yTw9-85">
          <mxGeometry relative="1" as="geometry" />
        </mxCell>
        <mxCell id="f2XqEatsttYMCxV9yTw9-84" value="4" style="strokeWidth=2;html=1;shape=mxgraph.flowchart.decision;whiteSpace=wrap;" vertex="1" parent="f2XqEatsttYMCxV9yTw9-161">
          <mxGeometry x="143.50588235294117" y="1090.6493506493507" width="153.07294117647058" height="86.1038961038961" as="geometry" />
        </mxCell>
        <mxCell id="f2XqEatsttYMCxV9yTw9-93" value="" style="edgeStyle=orthogonalEdgeStyle;rounded=0;orthogonalLoop=1;jettySize=auto;html=1;fontFamily=Helvetica;fontSize=12;fontColor=default;" edge="1" parent="f2XqEatsttYMCxV9yTw9-161" source="f2XqEatsttYMCxV9yTw9-85" target="f2XqEatsttYMCxV9yTw9-74">
          <mxGeometry relative="1" as="geometry" />
        </mxCell>
        <mxCell id="f2XqEatsttYMCxV9yTw9-106" value="" style="edgeStyle=orthogonalEdgeStyle;rounded=0;orthogonalLoop=1;jettySize=auto;html=1;fontFamily=Helvetica;fontSize=12;fontColor=default;" edge="1" parent="f2XqEatsttYMCxV9yTw9-161" source="f2XqEatsttYMCxV9yTw9-85" target="f2XqEatsttYMCxV9yTw9-86">
          <mxGeometry relative="1" as="geometry" />
        </mxCell>
        <mxCell id="f2XqEatsttYMCxV9yTw9-85" value="5" style="strokeWidth=2;html=1;shape=mxgraph.flowchart.decision;whiteSpace=wrap;" vertex="1" parent="f2XqEatsttYMCxV9yTw9-161">
          <mxGeometry x="143.50588235294117" y="1205.4545454545455" width="153.07294117647058" height="86.1038961038961" as="geometry" />
        </mxCell>
        <mxCell id="f2XqEatsttYMCxV9yTw9-92" value="" style="edgeStyle=orthogonalEdgeStyle;rounded=0;orthogonalLoop=1;jettySize=auto;html=1;fontFamily=Helvetica;fontSize=12;fontColor=default;" edge="1" parent="f2XqEatsttYMCxV9yTw9-161" source="f2XqEatsttYMCxV9yTw9-86" target="f2XqEatsttYMCxV9yTw9-75">
          <mxGeometry relative="1" as="geometry" />
        </mxCell>
        <mxCell id="f2XqEatsttYMCxV9yTw9-135" value="" style="edgeStyle=orthogonalEdgeStyle;rounded=0;orthogonalLoop=1;jettySize=auto;html=1;fontFamily=Helvetica;fontSize=12;fontColor=default;" edge="1" parent="f2XqEatsttYMCxV9yTw9-161" source="f2XqEatsttYMCxV9yTw9-86" target="f2XqEatsttYMCxV9yTw9-132">
          <mxGeometry relative="1" as="geometry" />
        </mxCell>
        <mxCell id="f2XqEatsttYMCxV9yTw9-86" value="6" style="strokeWidth=2;html=1;shape=mxgraph.flowchart.decision;whiteSpace=wrap;" vertex="1" parent="f2XqEatsttYMCxV9yTw9-161">
          <mxGeometry x="143.50588235294117" y="1320.2597402597403" width="153.07294117647058" height="86.1038961038961" as="geometry" />
        </mxCell>
        <mxCell id="f2XqEatsttYMCxV9yTw9-90" value="" style="edgeStyle=orthogonalEdgeStyle;rounded=0;orthogonalLoop=1;jettySize=auto;html=1;fontFamily=Helvetica;fontSize=12;fontColor=default;" edge="1" parent="f2XqEatsttYMCxV9yTw9-161" source="f2XqEatsttYMCxV9yTw9-87" target="f2XqEatsttYMCxV9yTw9-76">
          <mxGeometry relative="1" as="geometry" />
        </mxCell>
        <mxCell id="f2XqEatsttYMCxV9yTw9-108" value="" style="edgeStyle=orthogonalEdgeStyle;rounded=0;orthogonalLoop=1;jettySize=auto;html=1;fontFamily=Helvetica;fontSize=12;fontColor=default;" edge="1" parent="f2XqEatsttYMCxV9yTw9-161" source="f2XqEatsttYMCxV9yTw9-87" target="f2XqEatsttYMCxV9yTw9-88">
          <mxGeometry relative="1" as="geometry" />
        </mxCell>
        <mxCell id="f2XqEatsttYMCxV9yTw9-87" value="8" style="strokeWidth=2;html=1;shape=mxgraph.flowchart.decision;whiteSpace=wrap;" vertex="1" parent="f2XqEatsttYMCxV9yTw9-161">
          <mxGeometry x="143.50588235294117" y="1569.004329004329" width="153.07294117647058" height="86.1038961038961" as="geometry" />
        </mxCell>
        <mxCell id="f2XqEatsttYMCxV9yTw9-91" value="" style="edgeStyle=orthogonalEdgeStyle;rounded=0;orthogonalLoop=1;jettySize=auto;html=1;fontFamily=Helvetica;fontSize=12;fontColor=default;" edge="1" parent="f2XqEatsttYMCxV9yTw9-161" source="f2XqEatsttYMCxV9yTw9-88" target="f2XqEatsttYMCxV9yTw9-77">
          <mxGeometry relative="1" as="geometry" />
        </mxCell>
        <mxCell id="f2XqEatsttYMCxV9yTw9-136" value="" style="edgeStyle=orthogonalEdgeStyle;rounded=0;orthogonalLoop=1;jettySize=auto;html=1;fontFamily=Helvetica;fontSize=12;fontColor=default;" edge="1" parent="f2XqEatsttYMCxV9yTw9-161" source="f2XqEatsttYMCxV9yTw9-88" target="f2XqEatsttYMCxV9yTw9-128">
          <mxGeometry relative="1" as="geometry" />
        </mxCell>
        <mxCell id="f2XqEatsttYMCxV9yTw9-88" value="9" style="strokeWidth=2;html=1;shape=mxgraph.flowchart.decision;whiteSpace=wrap;" vertex="1" parent="f2XqEatsttYMCxV9yTw9-161">
          <mxGeometry x="143.50588235294117" y="1693.3766233766235" width="153.07294117647058" height="86.1038961038961" as="geometry" />
        </mxCell>
        <mxCell id="f2XqEatsttYMCxV9yTw9-147" style="edgeStyle=orthogonalEdgeStyle;rounded=0;orthogonalLoop=1;jettySize=auto;html=1;fontFamily=Helvetica;fontSize=12;fontColor=default;" edge="1" parent="f2XqEatsttYMCxV9yTw9-161" source="f2XqEatsttYMCxV9yTw9-109">
          <mxGeometry relative="1" as="geometry">
            <mxPoint x="220.04235294117646" y="1798.6147186147186" as="targetPoint" />
            <Array as="points">
              <mxPoint x="737.6202352941176" y="693.6147186147186" />
              <mxPoint x="737.6202352941176" y="1798.6147186147186" />
            </Array>
          </mxGeometry>
        </mxCell>
        <mxCell id="f2XqEatsttYMCxV9yTw9-109" value="break" style="rounded=0;whiteSpace=wrap;html=1;strokeWidth=2;" vertex="1" parent="f2XqEatsttYMCxV9yTw9-161">
          <mxGeometry x="545.3223529411765" y="669.6969696969697" width="133.93882352941176" height="47.83549783549784" as="geometry" />
        </mxCell>
        <mxCell id="f2XqEatsttYMCxV9yTw9-151" style="edgeStyle=orthogonalEdgeStyle;rounded=0;orthogonalLoop=1;jettySize=auto;html=1;fontFamily=Helvetica;fontSize=12;fontColor=default;" edge="1" parent="f2XqEatsttYMCxV9yTw9-161" source="f2XqEatsttYMCxV9yTw9-110">
          <mxGeometry relative="1" as="geometry">
            <mxPoint x="736.6635294117647" y="798.8528138528138" as="targetPoint" />
          </mxGeometry>
        </mxCell>
        <mxCell id="f2XqEatsttYMCxV9yTw9-110" value="break" style="rounded=0;whiteSpace=wrap;html=1;strokeWidth=2;" vertex="1" parent="f2XqEatsttYMCxV9yTw9-161">
          <mxGeometry x="545.3223529411765" y="774.9350649350649" width="133.93882352941176" height="47.83549783549784" as="geometry" />
        </mxCell>
        <mxCell id="f2XqEatsttYMCxV9yTw9-150" style="edgeStyle=orthogonalEdgeStyle;rounded=0;orthogonalLoop=1;jettySize=auto;html=1;fontFamily=Helvetica;fontSize=12;fontColor=default;" edge="1" parent="f2XqEatsttYMCxV9yTw9-161" source="f2XqEatsttYMCxV9yTw9-111">
          <mxGeometry relative="1" as="geometry">
            <mxPoint x="736.6635294117647" y="913.6580086580087" as="targetPoint" />
          </mxGeometry>
        </mxCell>
        <mxCell id="f2XqEatsttYMCxV9yTw9-111" value="break" style="rounded=0;whiteSpace=wrap;html=1;strokeWidth=2;" vertex="1" parent="f2XqEatsttYMCxV9yTw9-161">
          <mxGeometry x="545.3223529411765" y="889.7402597402597" width="133.93882352941176" height="47.83549783549784" as="geometry" />
        </mxCell>
        <mxCell id="f2XqEatsttYMCxV9yTw9-149" style="edgeStyle=orthogonalEdgeStyle;rounded=0;orthogonalLoop=1;jettySize=auto;html=1;fontFamily=Helvetica;fontSize=12;fontColor=default;" edge="1" parent="f2XqEatsttYMCxV9yTw9-161" source="f2XqEatsttYMCxV9yTw9-112">
          <mxGeometry relative="1" as="geometry">
            <mxPoint x="736.6635294117647" y="1028.4632034632034" as="targetPoint" />
          </mxGeometry>
        </mxCell>
        <mxCell id="f2XqEatsttYMCxV9yTw9-112" value="break" style="rounded=0;whiteSpace=wrap;html=1;strokeWidth=2;" vertex="1" parent="f2XqEatsttYMCxV9yTw9-161">
          <mxGeometry x="545.3223529411765" y="1004.5454545454546" width="133.93882352941176" height="47.83549783549784" as="geometry" />
        </mxCell>
        <mxCell id="f2XqEatsttYMCxV9yTw9-148" style="edgeStyle=orthogonalEdgeStyle;rounded=0;orthogonalLoop=1;jettySize=auto;html=1;fontFamily=Helvetica;fontSize=12;fontColor=default;" edge="1" parent="f2XqEatsttYMCxV9yTw9-161" source="f2XqEatsttYMCxV9yTw9-113">
          <mxGeometry relative="1" as="geometry">
            <mxPoint x="736.6635294117647" y="1133.7012987012988" as="targetPoint" />
          </mxGeometry>
        </mxCell>
        <mxCell id="f2XqEatsttYMCxV9yTw9-113" value="break" style="rounded=0;whiteSpace=wrap;html=1;strokeWidth=2;" vertex="1" parent="f2XqEatsttYMCxV9yTw9-161">
          <mxGeometry x="545.3223529411765" y="1109.78354978355" width="133.93882352941176" height="47.83549783549784" as="geometry" />
        </mxCell>
        <mxCell id="f2XqEatsttYMCxV9yTw9-144" style="edgeStyle=orthogonalEdgeStyle;rounded=0;orthogonalLoop=1;jettySize=auto;html=1;fontFamily=Helvetica;fontSize=12;fontColor=default;" edge="1" parent="f2XqEatsttYMCxV9yTw9-161" source="f2XqEatsttYMCxV9yTw9-114">
          <mxGeometry relative="1" as="geometry">
            <mxPoint x="736.6635294117647" y="1248.5064935064936" as="targetPoint" />
          </mxGeometry>
        </mxCell>
        <mxCell id="f2XqEatsttYMCxV9yTw9-114" value="break" style="rounded=0;whiteSpace=wrap;html=1;strokeWidth=2;" vertex="1" parent="f2XqEatsttYMCxV9yTw9-161">
          <mxGeometry x="545.3223529411765" y="1224.5887445887447" width="133.93882352941176" height="47.83549783549784" as="geometry" />
        </mxCell>
        <mxCell id="f2XqEatsttYMCxV9yTw9-143" style="edgeStyle=orthogonalEdgeStyle;rounded=0;orthogonalLoop=1;jettySize=auto;html=1;fontFamily=Helvetica;fontSize=12;fontColor=default;" edge="1" parent="f2XqEatsttYMCxV9yTw9-161" source="f2XqEatsttYMCxV9yTw9-115">
          <mxGeometry relative="1" as="geometry">
            <mxPoint x="736.6635294117647" y="1363.3116883116884" as="targetPoint" />
          </mxGeometry>
        </mxCell>
        <mxCell id="f2XqEatsttYMCxV9yTw9-115" value="break" style="rounded=0;whiteSpace=wrap;html=1;strokeWidth=2;" vertex="1" parent="f2XqEatsttYMCxV9yTw9-161">
          <mxGeometry x="554.8894117647059" y="1339.3939393939395" width="133.93882352941176" height="47.83549783549784" as="geometry" />
        </mxCell>
        <mxCell id="f2XqEatsttYMCxV9yTw9-141" style="edgeStyle=orthogonalEdgeStyle;rounded=0;orthogonalLoop=1;jettySize=auto;html=1;fontFamily=Helvetica;fontSize=12;fontColor=default;" edge="1" parent="f2XqEatsttYMCxV9yTw9-161" source="f2XqEatsttYMCxV9yTw9-116">
          <mxGeometry relative="1" as="geometry">
            <mxPoint x="736.6635294117647" y="1612.0562770562772" as="targetPoint" />
          </mxGeometry>
        </mxCell>
        <mxCell id="f2XqEatsttYMCxV9yTw9-116" value="break" style="rounded=0;whiteSpace=wrap;html=1;strokeWidth=2;" vertex="1" parent="f2XqEatsttYMCxV9yTw9-161">
          <mxGeometry x="545.3223529411765" y="1588.1385281385283" width="133.93882352941176" height="47.83549783549784" as="geometry" />
        </mxCell>
        <mxCell id="f2XqEatsttYMCxV9yTw9-146" style="edgeStyle=orthogonalEdgeStyle;rounded=0;orthogonalLoop=1;jettySize=auto;html=1;fontFamily=Helvetica;fontSize=12;fontColor=default;" edge="1" parent="f2XqEatsttYMCxV9yTw9-161" source="f2XqEatsttYMCxV9yTw9-117">
          <mxGeometry relative="1" as="geometry">
            <mxPoint x="736.6635294117647" y="1736.4285714285716" as="targetPoint" />
          </mxGeometry>
        </mxCell>
        <mxCell id="f2XqEatsttYMCxV9yTw9-117" value="break" style="rounded=0;whiteSpace=wrap;html=1;strokeWidth=2;" vertex="1" parent="f2XqEatsttYMCxV9yTw9-161">
          <mxGeometry x="545.3223529411765" y="1712.5108225108227" width="133.93882352941176" height="47.83549783549784" as="geometry" />
        </mxCell>
        <mxCell id="f2XqEatsttYMCxV9yTw9-155" value="" style="edgeStyle=orthogonalEdgeStyle;rounded=0;orthogonalLoop=1;jettySize=auto;html=1;fontFamily=Helvetica;fontSize=12;fontColor=default;" edge="1" parent="f2XqEatsttYMCxV9yTw9-161" source="f2XqEatsttYMCxV9yTw9-127" target="f2XqEatsttYMCxV9yTw9-154">
          <mxGeometry relative="1" as="geometry" />
        </mxCell>
        <mxCell id="f2XqEatsttYMCxV9yTw9-127" value="totalleds" style="shape=display;whiteSpace=wrap;html=1;rounded=0;strokeColor=default;strokeWidth=2;align=center;verticalAlign=middle;fontFamily=Helvetica;fontSize=12;fontColor=default;fillColor=default;" vertex="1" parent="f2XqEatsttYMCxV9yTw9-161">
          <mxGeometry x="122.45835294117647" y="1970.8225108225108" width="195.168" height="66.96969696969697" as="geometry" />
        </mxCell>
        <mxCell id="f2XqEatsttYMCxV9yTw9-137" style="edgeStyle=orthogonalEdgeStyle;rounded=0;orthogonalLoop=1;jettySize=auto;html=1;fontFamily=Helvetica;fontSize=12;fontColor=default;" edge="1" parent="f2XqEatsttYMCxV9yTw9-161" source="f2XqEatsttYMCxV9yTw9-128">
          <mxGeometry relative="1" as="geometry">
            <mxPoint x="220.04235294117646" y="363.54978354978357" as="targetPoint" />
            <Array as="points">
              <mxPoint x="48.792" y="1860.800865800866" />
              <mxPoint x="48.792" y="363.54978354978357" />
            </Array>
          </mxGeometry>
        </mxCell>
        <mxCell id="f2XqEatsttYMCxV9yTw9-138" value="S" style="edgeLabel;html=1;align=center;verticalAlign=middle;resizable=0;points=[];rounded=0;strokeColor=default;strokeWidth=2;fontFamily=Helvetica;fontSize=12;fontColor=default;fillColor=default;" vertex="1" connectable="0" parent="f2XqEatsttYMCxV9yTw9-137">
          <mxGeometry x="-0.9327" y="-5" relative="1" as="geometry">
            <mxPoint y="-10" as="offset" />
          </mxGeometry>
        </mxCell>
        <mxCell id="f2XqEatsttYMCxV9yTw9-139" value="" style="edgeStyle=orthogonalEdgeStyle;rounded=0;orthogonalLoop=1;jettySize=auto;html=1;fontFamily=Helvetica;fontSize=12;fontColor=default;" edge="1" parent="f2XqEatsttYMCxV9yTw9-161" source="f2XqEatsttYMCxV9yTw9-128" target="f2XqEatsttYMCxV9yTw9-127">
          <mxGeometry relative="1" as="geometry" />
        </mxCell>
        <mxCell id="f2XqEatsttYMCxV9yTw9-152" value="N" style="edgeLabel;html=1;align=center;verticalAlign=middle;resizable=0;points=[];rounded=0;strokeColor=default;strokeWidth=2;fontFamily=Helvetica;fontSize=12;fontColor=default;fillColor=default;" vertex="1" connectable="0" parent="f2XqEatsttYMCxV9yTw9-139">
          <mxGeometry x="0.2229" y="1" relative="1" as="geometry">
            <mxPoint x="9" y="-3" as="offset" />
          </mxGeometry>
        </mxCell>
        <mxCell id="f2XqEatsttYMCxV9yTw9-128" value="V &amp;gt; 0" style="strokeWidth=2;html=1;shape=mxgraph.flowchart.decision;whiteSpace=wrap;" vertex="1" parent="f2XqEatsttYMCxV9yTw9-161">
          <mxGeometry x="143.50588235294117" y="1817.7489177489178" width="153.07294117647058" height="86.1038961038961" as="geometry" />
        </mxCell>
        <mxCell id="f2XqEatsttYMCxV9yTw9-129" value="" style="edgeStyle=orthogonalEdgeStyle;rounded=0;orthogonalLoop=1;jettySize=auto;html=1;fontFamily=Helvetica;fontSize=12;fontColor=default;" edge="1" parent="f2XqEatsttYMCxV9yTw9-161" source="f2XqEatsttYMCxV9yTw9-130" target="f2XqEatsttYMCxV9yTw9-133">
          <mxGeometry relative="1" as="geometry" />
        </mxCell>
        <mxCell id="f2XqEatsttYMCxV9yTw9-130" value="totalleds += 3" style="rounded=0;whiteSpace=wrap;html=1;strokeWidth=2;" vertex="1" parent="f2XqEatsttYMCxV9yTw9-161">
          <mxGeometry x="353.98117647058825" y="1467.5930735930735" width="153.07294117647058" height="47.83549783549784" as="geometry" />
        </mxCell>
        <mxCell id="f2XqEatsttYMCxV9yTw9-131" value="" style="edgeStyle=orthogonalEdgeStyle;rounded=0;orthogonalLoop=1;jettySize=auto;html=1;fontFamily=Helvetica;fontSize=12;fontColor=default;" edge="1" parent="f2XqEatsttYMCxV9yTw9-161" source="f2XqEatsttYMCxV9yTw9-132" target="f2XqEatsttYMCxV9yTw9-130">
          <mxGeometry relative="1" as="geometry" />
        </mxCell>
        <mxCell id="f2XqEatsttYMCxV9yTw9-134" value="" style="edgeStyle=orthogonalEdgeStyle;rounded=0;orthogonalLoop=1;jettySize=auto;html=1;fontFamily=Helvetica;fontSize=12;fontColor=default;" edge="1" parent="f2XqEatsttYMCxV9yTw9-161" source="f2XqEatsttYMCxV9yTw9-132" target="f2XqEatsttYMCxV9yTw9-87">
          <mxGeometry relative="1" as="geometry" />
        </mxCell>
        <mxCell id="f2XqEatsttYMCxV9yTw9-132" value="7" style="strokeWidth=2;html=1;shape=mxgraph.flowchart.decision;whiteSpace=wrap;" vertex="1" parent="f2XqEatsttYMCxV9yTw9-161">
          <mxGeometry x="143.50588235294117" y="1448.4588744588746" width="153.07294117647058" height="86.1038961038961" as="geometry" />
        </mxCell>
        <mxCell id="f2XqEatsttYMCxV9yTw9-142" style="edgeStyle=orthogonalEdgeStyle;rounded=0;orthogonalLoop=1;jettySize=auto;html=1;fontFamily=Helvetica;fontSize=12;fontColor=default;" edge="1" parent="f2XqEatsttYMCxV9yTw9-161" source="f2XqEatsttYMCxV9yTw9-133">
          <mxGeometry relative="1" as="geometry">
            <mxPoint x="736.6635294117647" y="1492.4675324675325" as="targetPoint" />
            <Array as="points">
              <mxPoint x="717.5294117647059" y="1492.4675324675325" />
              <mxPoint x="717.5294117647059" y="1492.4675324675325" />
            </Array>
          </mxGeometry>
        </mxCell>
        <mxCell id="f2XqEatsttYMCxV9yTw9-133" value="break" style="rounded=0;whiteSpace=wrap;html=1;strokeWidth=2;" vertex="1" parent="f2XqEatsttYMCxV9yTw9-161">
          <mxGeometry x="545.3223529411765" y="1467.5930735930735" width="133.93882352941176" height="47.83549783549784" as="geometry" />
        </mxCell>
        <mxCell id="f2XqEatsttYMCxV9yTw9-156" style="edgeStyle=orthogonalEdgeStyle;rounded=0;orthogonalLoop=1;jettySize=auto;html=1;fontFamily=Helvetica;fontSize=12;fontColor=default;" edge="1" parent="f2XqEatsttYMCxV9yTw9-161" source="f2XqEatsttYMCxV9yTw9-154">
          <mxGeometry relative="1" as="geometry">
            <mxPoint x="220.04235294117646" y="162.64069264069263" as="targetPoint" />
            <Array as="points">
              <mxPoint x="813.2" y="2095.194805194805" />
              <mxPoint x="813.2" y="162.64069264069263" />
            </Array>
          </mxGeometry>
        </mxCell>
        <mxCell id="f2XqEatsttYMCxV9yTw9-159" value="" style="edgeStyle=orthogonalEdgeStyle;rounded=0;orthogonalLoop=1;jettySize=auto;html=1;fontFamily=Helvetica;fontSize=12;fontColor=default;" edge="1" parent="f2XqEatsttYMCxV9yTw9-161" source="f2XqEatsttYMCxV9yTw9-154" target="f2XqEatsttYMCxV9yTw9-158">
          <mxGeometry relative="1" as="geometry" />
        </mxCell>
        <mxCell id="f2XqEatsttYMCxV9yTw9-154" value="i" style="strokeWidth=2;html=1;shape=mxgraph.flowchart.start_2;whiteSpace=wrap;rounded=0;strokeColor=default;align=center;verticalAlign=middle;fontFamily=Helvetica;fontSize=12;fontColor=default;fillColor=default;" vertex="1" parent="f2XqEatsttYMCxV9yTw9-161">
          <mxGeometry x="200.90823529411765" y="2076.060606060606" width="38.268235294117645" height="38.26839826839827" as="geometry" />
        </mxCell>
        <mxCell id="f2XqEatsttYMCxV9yTw9-158" value="FIM" style="strokeWidth=2;html=1;shape=mxgraph.flowchart.terminator;whiteSpace=wrap;" vertex="1" parent="f2XqEatsttYMCxV9yTw9-161">
          <mxGeometry x="143.50588235294117" y="2162.164502164502" width="153.07294117647058" height="47.83549783549784" as="geometry" />
        </mxCell>
      </root>
    </mxGraphModel>
  </diagram>
</mxfile>
